<svg width="32" height="30" viewBox="0 0 32 30" fill="none" xmlns="http://www.w3.org/2000/svg">
<path d="M2 12.9873C0.89543 12.9873 0 13.8827 0 14.9873C0 16.0919 0.89543 16.9873 2 16.9873V12.9873ZM31.4142 16.4015C32.1953 15.6205 32.1953 14.3541 31.4142 13.5731L18.6863 0.845169C17.9052 0.0641203 16.6389 0.0641203 15.8579 0.845169C15.0768 1.62622 15.0768 2.89255 15.8579 3.6736L27.1716 14.9873L15.8579 26.301C15.0768 27.0821 15.0768 28.3484 15.8579 29.1294C16.6389 29.9105 17.9052 29.9105 18.6863 29.1294L31.4142 16.4015ZM2 16.9873H30V12.9873H2V16.9873Z" fill="#1E1E1E"/>
</svg>
